<?xml version="1.0" standalone="no"?>
<!DOCTYPE svg PUBLIC "-//W3C//DTD SVG 20010904//EN"
 "http://www.w3.org/TR/2001/REC-SVG-20010904/DTD/svg10.dtd">
<svg version="1.0" xmlns="http://www.w3.org/2000/svg"
 width="300.000000pt" height="278.000000pt" viewBox="0 0 300.000000 278.000000"
 preserveAspectRatio="xMidYMid meet">
<metadata>
Created by potrace 1.10, written by Peter Selinger 2001-2011
</metadata>
<g transform="translate(0.000000,278.000000) scale(0.100000,-0.100000)"
fill="#ffffff" stroke="none">
<path d="M0 1390 l0 -1390 1500 0 1500 0 0 1390 0 1390 -1500 0 -1500 0 0
-1390z m1650 135 l0 -500 -213 -215 c-116 -118 -214 -216 -217 -217 -3 -2 -4
223 -2 499 l3 503 -191 -3 -190 -4 0 221 0 221 405 -2 406 -3 -1 -500z m611
484 c-64 -53 -453 -414 -466 -431 -7 -11 -17 -18 -22 -15 -4 3 -7 109 -5 236
l3 231 257 0 257 -1 -24 -20z"/>
<path d="M875 1878 c-4 -62 -5 -142 -3 -178 l3 -65 171 -3 c150 -2 173 -5 188
-20 14 -16 16 -70 18 -477 l3 -459 177 175 c155 155 176 180 178 210 1 19 2
235 1 482 l-1 447 -364 0 -364 0 -7 -112z"/>
<path d="M1810 1820 c0 -93 3 -170 7 -170 3 0 39 30 78 68 39 37 91 85 116
108 24 22 74 68 111 102 l67 62 -189 0 -190 0 0 -170z"/>
</g>
</svg>
