<?xml version="1.0" encoding="UTF-8"?>
<svg version="1.1" xmlns="http://www.w3.org/2000/svg" width="293" height="256">
<path d="M0 0 C96.69 0 193.38 0 293 0 C293 84.48 293 168.96 293 256 C196.31 256 99.62 256 0 256 C0 171.52 0 87.04 0 0 Z " fill="#000000" transform="translate(0,0)"/>
<path d="M0 0 C27.39 0 54.78 0 83 0 C83.20054405 26.08409567 83.20054405 26.08409567 83.24414062 37.17773438 C83.2740641 44.75628088 83.30951413 52.33452621 83.37719727 59.9128418 C83.43140777 66.02068067 83.46139773 72.12819672 83.47438622 78.23625755 C83.48364572 80.56996941 83.50172678 82.90366302 83.52865028 85.23723793 C83.56479373 88.4988018 83.56995136 91.75902101 83.56762695 95.02075195 C83.58560333 95.99179367 83.60357971 96.96283539 83.62210083 97.96330261 C83.60313006 100.41315905 83.55752399 102.61443975 83 105 C80.55949402 107.02507019 80.55949402 107.02507019 78 108 C76.45951569 109.54303998 76.45951569 109.54303998 75.1875 111.25 C72.41774787 114.63366626 69.37367354 117.42084631 66.02734375 120.2265625 C63.56966857 122.37643636 61.2897593 124.6753498 59 127 C55.75333603 130.27415632 52.5018954 133.54354068 49.25 136.8125 C48.37472656 137.69615234 47.49945313 138.57980469 46.59765625 139.49023438 C45.76621094 140.32490234 44.93476562 141.15957031 44.078125 142.01953125 C43.31918945 142.78370361 42.56025391 143.54787598 41.77832031 144.33520508 C40 146 40 146 39 146 C38.67 112.67 38.34 79.34 38 45 C25.46 44.67 12.92 44.34 0 44 C0 29.48 0 14.96 0 0 Z " fill="#FDFDFD" transform="translate(69,50)"/>
<path d="M0 0 C0.9215538 0.00222061 1.8431076 0.00444122 2.79258728 0.00672913 C3.83359085 0.00680466 4.87459442 0.00688019 5.94714355 0.00695801 C7.07941879 0.01211929 8.21169403 0.01728058 9.37828064 0.02259827 C10.53106003 0.02401321 11.68383942 0.02542816 12.87155151 0.02688599 C16.57043503 0.03250446 20.26925903 0.0450601 23.96812439 0.05775452 C26.46877456 0.06276714 28.96942567 0.06733045 31.47007751 0.07142639 C37.61528027 0.0824799 43.76044808 0.099236 49.90562439 0.12025452 C49.90562439 0.78025452 49.90562439 1.44025452 49.90562439 2.12025452 C49.24562439 2.12025452 48.58562439 2.12025452 47.90562439 2.12025452 C47.67874939 2.71837952 47.45187439 3.31650452 47.21812439 3.93275452 C45.90562439 6.12025452 45.90562439 6.12025452 43.78453064 7.33900452 C39.92537394 9.72675955 36.81863396 12.6973754 33.53062439 15.80775452 C32.52817688 16.74723938 32.52817688 16.74723938 31.50547791 17.70570374 C27.57239983 21.42741919 23.83347258 25.19530119 20.49546814 29.47181702 C18.25560641 31.79422894 15.58791011 33.33206404 12.90562439 35.12025452 C10.72883358 36.91895182 8.65894364 38.82092973 6.59312439 40.74525452 C6.05622986 41.23509827 5.51933533 41.72494202 4.96617126 42.22962952 C2.04653594 44.86602319 2.04653594 44.86602319 -0.09437561 48.12025452 C-1.08437561 48.12025452 -2.07437561 48.12025452 -3.09437561 48.12025452 C-3.11964506 41.44505111 -3.13720829 34.76985995 -3.14930725 28.09461975 C-3.15434886 25.8218286 -3.16118198 23.54904072 -3.16981506 21.27626038 C-3.18188822 18.017219 -3.18760548 14.75822035 -3.19203186 11.49916077 C-3.19719315 10.47625443 -3.20235443 9.45334808 -3.20767212 8.39944458 C-3.20774765 7.45854477 -3.20782318 6.51764496 -3.207901 5.54823303 C-3.21012161 4.71550369 -3.21234222 3.88277435 -3.21463013 3.02481079 C-3.04346959 0.31401965 -2.70887489 0.15553774 0 0 Z " fill="#FAFAFA" transform="translate(167.09437561035156,48.87974548339844)"/>
<path d="M0 0 C0.80208106 0.00359811 1.60416212 0.00719622 2.43054867 0.01090336 C3.28311717 0.01078282 4.13568567 0.01066229 5.01408958 0.0105381 C7.78696859 0.01128734 10.55978123 0.01891607 13.33264828 0.0267725 C15.03931299 0.02824188 16.74597814 0.02926262 18.45264339 0.02982426 C24.79676646 0.03507754 31.14087989 0.04903862 37.48499203 0.06192875 C51.65436703 0.08255375 65.82374203 0.10317875 80.42249203 0.12442875 C80.42249203 34.44442875 80.42249203 68.76442875 80.42249203 104.12442875 C79.76249203 104.12442875 79.10249203 104.12442875 78.42249203 104.12442875 C78.42249203 70.13442875 78.42249203 36.14442875 78.42249203 1.12442875 C51.03249203 1.12442875 23.64249203 1.12442875 -4.57750797 1.12442875 C-4.57750797 15.64442875 -4.57750797 30.16442875 -4.57750797 45.12442875 C7.88332898 45.08482529 7.88332898 45.08482529 20.34412289 45.03434086 C21.90019316 45.0314217 23.45626419 45.02887314 25.01233578 45.0267725 C25.82770809 45.02165653 26.64308041 45.01654057 27.48316097 45.01126957 C29.46329726 45.01095935 31.44333856 45.06204779 33.42249203 45.12442875 C35.59184986 47.29378659 34.6091771 52.40135074 34.62781429 55.41764164 C34.63771389 56.39314472 34.64761349 57.3686478 34.65781307 58.37371159 C34.68953151 61.61481093 34.71422621 64.85592497 34.73889828 68.097085 C34.75945888 70.33768449 34.78045511 72.57828002 34.8018713 74.8188715 C34.85718427 80.72897998 34.90655273 86.639124 34.95471859 92.54929447 C35.00486643 98.57502261 35.06058747 104.60069887 35.1158514 110.62638187 C35.22354574 122.45901989 35.3249655 134.29170287 35.42249203 146.12442875 C36.41249203 145.46442875 37.40249203 144.80442875 38.42249203 144.12442875 C37.67249203 146.06192875 37.67249203 146.06192875 36.42249203 148.12442875 C35.10249203 148.45442875 33.78249203 148.78442875 32.42249203 149.12442875 C32.42249203 115.46442875 32.42249203 81.80442875 32.42249203 47.12442875 C19.55249203 47.12442875 6.68249203 47.12442875 -6.57750797 47.12442875 C-6.60041236 40.59158915 -6.62034085 34.05888778 -6.63243961 27.52604008 C-6.63748114 25.30175143 -6.6443142 23.07746612 -6.65294743 20.85318851 C-6.66502096 17.66364566 -6.67073793 14.47414646 -6.67516422 11.284585 C-6.68032551 10.28355244 -6.68548679 9.28251987 -6.69080448 8.25115299 C-6.69088001 7.33027393 -6.69095554 6.40939487 -6.69103336 5.46061039 C-6.69325397 4.64564594 -6.69547459 3.8306815 -6.69776249 2.99102116 C-6.43459205 -1.09391435 -3.38363719 0.00644241 0 0 Z " fill="#4E4E4E" transform="translate(73.57750797271729,48.87557125091553)"/>
<path d="M0 0 C0.9215538 0.00222061 1.8431076 0.00444122 2.79258728 0.00672913 C3.83359085 0.00680466 4.87459442 0.00688019 5.94714355 0.00695801 C7.07941879 0.01211929 8.21169403 0.01728058 9.37828064 0.02259827 C10.53106003 0.02401321 11.68383942 0.02542816 12.87155151 0.02688599 C16.57043503 0.03250446 20.26925903 0.0450601 23.96812439 0.05775452 C26.46877456 0.06276714 28.96942567 0.06733045 31.47007751 0.07142639 C37.61528027 0.0824799 43.76044808 0.099236 49.90562439 0.12025452 C49.90562439 0.78025452 49.90562439 1.44025452 49.90562439 2.12025452 C49.24562439 2.12025452 48.58562439 2.12025452 47.90562439 2.12025452 C47.24562439 3.44025452 46.58562439 4.76025452 45.90562439 6.12025452 C45.24562439 5.79025452 44.58562439 5.46025452 43.90562439 5.12025452 C44.56562439 4.46025452 45.22562439 3.80025452 45.90562439 3.12025452 C30.39562439 2.79025452 14.88562439 2.46025452 -1.09437561 2.12025452 C-1.09437561 16.31025452 -1.09437561 30.50025452 -1.09437561 45.12025452 C-0.43437561 45.45025452 0.22562439 45.78025452 0.90562439 46.12025452 C0.57562439 46.78025452 0.24562439 47.44025452 -0.09437561 48.12025452 C-1.08437561 48.12025452 -2.07437561 48.12025452 -3.09437561 48.12025452 C-3.11964506 41.44505111 -3.13720829 34.76985995 -3.14930725 28.09461975 C-3.15434886 25.8218286 -3.16118198 23.54904072 -3.16981506 21.27626038 C-3.18188822 18.017219 -3.18760548 14.75822035 -3.19203186 11.49916077 C-3.19719315 10.47625443 -3.20235443 9.45334808 -3.20767212 8.39944458 C-3.20774765 7.45854477 -3.20782318 6.51764496 -3.207901 5.54823303 C-3.21012161 4.71550369 -3.21234222 3.88277435 -3.21463013 3.02481079 C-3.04346959 0.31401965 -2.70887489 0.15553774 0 0 Z " fill="#A3A3A3" transform="translate(167.09437561035156,48.87974548339844)"/>
</svg>
