<?xml version="1.0" standalone="no"?>
<!DOCTYPE svg PUBLIC "-//W3C//DTD SVG 20010904//EN"
 "http://www.w3.org/TR/2001/REC-SVG-20010904/DTD/svg10.dtd">
<svg version="1.0" xmlns="http://www.w3.org/2000/svg"
 width="293.000000pt" height="256.000000pt" viewBox="0 0 293.000000 256.000000"
 preserveAspectRatio="xMidYMid meet">
<metadata>
Created by potrace 1.10, written by Peter Selinger 2001-2011
</metadata>
<g transform="translate(0.000000,256.000000) scale(0.100000,-0.100000)"
fill="#000000" stroke="none">
<path d="M674 2086 c-18 -13 -19 -31 -24 -239 -6 -289 -25 -266 210 -269 l175
-3 5 -493 c6 -614 -5 -587 174 -405 53 53 96 100 96 105 0 5 5 6 10 3 6 -3 10
0 10 8 0 8 9 17 21 20 11 3 23 15 26 26 3 12 9 21 12 21 13 0 142 134 157 162
12 23 14 115 14 531 -1 490 -1 505 -21 525 -20 22 -23 22 -432 22 -341 0 -417
-2 -433 -14z m846 -543 l0 -518 -223 -222 -222 -223 0 518 0 517 -198 0 -197
0 0 221 c0 121 2 223 4 225 2 2 192 3 421 2 l416 -2 -1 -518z"/>
<path d="M1632 2079 c-22 -20 -23 -25 -22 -248 1 -223 7 -269 36 -278 10 -3
57 36 159 132 23 22 77 72 119 110 43 39 97 88 120 110 23 22 65 61 94 87 55
49 62 67 36 92 -13 14 -52 16 -268 16 -241 0 -253 -1 -274 -21z m538 -21 c0
-4 -6 -11 -14 -15 -14 -8 -114 -96 -181 -159 -17 -16 -95 -87 -173 -158 -78
-71 -142 -133 -142 -138 0 -4 -4 -8 -10 -8 -10 0 -15 471 -6 481 7 7 526 4
526 -3z"/>
</g>
</svg>
