<?xml version="1.0" encoding="UTF-8"?>
<svg version="1.1" xmlns="http://www.w3.org/2000/svg" width="293" height="256">
<path d="M0,0 L293,0 L293,256 L0,256 Z " fill="#000000" transform="translate(0,0)"/>
<path d="M0,0 L83,0 L83,105 L80,105 L80,106 L79,106 L79,107 L78,107 L78,108 L77,108 L77,109 L76,109 L76,110 L75,110 L75,111 L74,111 L74,112 L73,112 L73,113 L72,113 L72,115 L70,115 L70,116 L69,116 L69,117 L68,117 L68,118 L67,118 L67,120 L65,120 L65,121 L64,121 L64,122 L63,122 L63,124 L61,124 L61,125 L60,125 L60,126 L59,126 L59,127 L58,127 L58,129 L57,129 L57,130 L56,130 L56,131 L55,131 L55,132 L53,132 L53,133 L52,133 L52,134 L51,134 L51,135 L50,135 L50,136 L49,136 L49,137 L48,137 L48,139 L46,139 L46,140 L45,140 L45,141 L44,141 L44,142 L43,142 L43,143 L42,143 L42,144 L41,144 L41,145 L40,145 L40,146 L39,146 L39,45 L38,45 L38,44 L0,44 Z " fill="#FDFDFD" transform="translate(69,50)"/>
<path d="M0,0 L52,0 L52,1 L51,1 L51,2 L49,2 L49,3 L48,3 L48,4 L47,4 L47,6 L45,6 L45,7 L44,7 L44,8 L43,8 L43,9 L42,9 L42,10 L41,10 L41,11 L40,11 L40,12 L39,12 L39,13 L38,13 L38,14 L36,14 L36,15 L35,15 L35,16 L34,16 L34,17 L33,17 L33,18 L32,18 L32,19 L31,19 L31,20 L30,20 L30,21 L29,21 L29,22 L28,22 L28,23 L27,23 L27,24 L26,24 L26,25 L25,25 L25,26 L23,26 L23,27 L22,27 L22,28 L21,28 L21,29 L20,29 L20,30 L19,30 L19,31 L18,31 L18,32 L17,32 L17,33 L16,33 L16,34 L15,34 L15,35 L14,35 L14,36 L12,36 L12,37 L11,37 L11,38 L10,38 L10,39 L9,39 L9,40 L8,40 L8,41 L7,41 L7,42 L6,42 L6,43 L5,43 L5,44 L4,44 L4,45 L3,45 L3,47 L0,47 Z " fill="#FBFBFB" transform="translate(164,50)"/>
<path d="M0,0 L86,0 L86,105 L85,105 L85,106 L84,106 L84,1 L1,1 L1,45 L39,45 L39,46 L40,46 L40,147 L41,147 L41,146 L42,146 L42,145 L43,145 L43,144 L44,144 L44,146 L43,146 L43,147 L42,147 L42,148 L41,148 L41,149 L38,149 L38,47 L-1,47 L-1,1 L0,1 Z " fill="#4E4E4E" transform="translate(68,49)"/>
<path d="M0,0 L52,0 L52,1 L51,1 L51,2 L49,2 L49,3 L48,3 L48,4 L47,4 L47,6 L46,6 L46,2 L47,2 L47,1 L2,1 L2,44 L4,44 L4,45 L3,45 L3,47 L0,47 Z " fill="#C0C0C0" transform="translate(164,50)"/>
<path d="M0,0 L1,0 L1,96 L2,96 L2,95 L3,95 L3,94 L4,94 L4,96 L5,96 L5,97 L4,97 L4,98 L3,98 L3,99 L2,99 L2,100 L1,100 L1,101 L0,101 Z " fill="#E7E6E7" transform="translate(108,95)"/>
<path d="M0,0 L1,0 L1,3 L0,3 L0,4 L-1,4 L-1,5 L-2,5 L-2,6 L-3,6 L-3,7 L-4,7 L-4,8 L-5,8 L-5,9 L-7,9 L-7,12 L-8,12 L-8,13 L-9,13 L-9,15 L-10,15 L-10,14 L-14,14 L-14,13 L-13,13 L-13,12 L-12,12 L-12,11 L-11,11 L-11,10 L-9,10 L-9,8 L-8,8 L-8,7 L-7,7 L-7,6 L-6,6 L-6,5 L-5,5 L-5,4 L-4,4 L-4,3 L-2,3 L-2,2 L-1,2 L-1,1 L0,1 Z " fill="#303030" transform="translate(126,179)"/>
<path d="M0,0 L1,0 L1,2 L0,2 L0,3 L-1,3 L-1,4 L-2,4 L-2,6 L-3,6 L-3,7 L-4,7 L-4,8 L-5,8 L-5,9 L-6,9 L-6,10 L-7,10 L-7,11 L-8,11 L-8,12 L-11,12 L-11,13 L-12,13 L-12,14 L-14,14 L-14,13 L-13,13 L-13,12 L-12,12 L-12,11 L-11,11 L-11,10 L-10,10 L-10,9 L-9,9 L-9,8 L-8,8 L-8,7 L-7,7 L-7,6 L-5,6 L-5,5 L-4,5 L-4,4 L-3,4 L-3,3 L-2,3 L-2,2 L-1,2 L-1,1 L0,1 Z " fill="#343434" transform="translate(194,70)"/>
<path d="M0,0 L1,0 L1,2 L0,2 L0,3 L-1,3 L-1,6 L-3,6 L-3,8 L-4,8 L-4,9 L-5,9 L-5,10 L-8,10 L-8,11 L-9,11 L-9,12 L-10,12 L-10,13 L-12,13 L-12,12 L-11,12 L-11,11 L-10,11 L-10,10 L-9,10 L-9,9 L-7,9 L-7,7 L-6,7 L-6,6 L-5,6 L-5,5 L-3,5 L-3,3 L-2,3 L-2,2 L-1,2 L-1,1 L0,1 Z " fill="#484848" transform="translate(139,165)"/>
</svg>
